<svg width="88" height="88" viewBox="0 0 88 88" fill="none" xmlns="http://www.w3.org/2000/svg">
<path d="M42.6697 34.1781C43.1672 32.964 43.82 31.5032 45.3087 28.6691C46.2123 26.9496 46.9924 25.4649 48.1786 23.5025C48.923 22.2686 49.5917 21.2376 50.1091 20.4575C51.773 17.9617 53.3532 16.0392 54.5314 14.7018C59.706 8.8346 64.6497 5.84131 65.7483 5.18454C68.1962 3.71974 70.6124 2.74851 70.6124 2.74851C72.8573 1.84495 74.5729 1.43895 76.7144 0.929449C79.7833 0.201029 81.3476 -0.15721 82.7567 0.065695C83.8354 0.236854 86.769 0.706546 87.7123 2.98336C88.4806 4.83824 87.6765 7.28621 85.7341 9.03362C85.7341 9.03362 90.1603 -1.13242 77.1562 4.19341C64.1521 9.51924 43.5573 36.6181 43.5573 36.6181L61.1787 22.0497C68.4271 17.0582 77.3592 18.105 77.3632 18.2364C77.3632 18.2643 76.997 18.2284 76.3124 18.2324C74.8874 18.2404 73.3549 18.3877 71.098 18.8613C69.9317 19.1081 67.5435 19.6097 64.9363 20.7401C62.6077 21.7511 60.8842 22.9254 57.8352 25.3335C55.2439 27.3795 51.9362 30.1299 48.1945 33.6049C43.4459 37.7326 42.0169 38.254 41.6228 37.9157C41.2726 37.6211 41.7343 36.4708 42.6697 34.1781Z" fill="#989899"/>
<path d="M39.7551 36.6937C39.9621 36.6499 40.1412 36.4787 40.3482 36.2837C40.3801 36.2518 40.4039 36.2279 40.4238 36.208C40.9254 34.0626 41.5264 32.4187 41.9802 31.3121C42.1673 30.8623 43.7196 27.0849 43.4171 24.9713C43.1584 23.1442 42.0877 27.2521 42.0877 27.2521L39.5044 36.2757C39.2217 36.3593 39.166 36.431 39.166 36.4787C39.166 36.5942 39.4845 36.7534 39.7551 36.6937Z" fill="#989899"/>
<path d="M75.5198 44.1253L69.6884 42.6565C69.6884 42.6565 81.0008 42.5689 81.9362 31.7979C81.9362 31.7979 78.7997 41.4703 68.4625 42.1749C68.4585 42.1788 67.3081 43.6476 75.5198 44.1253Z" fill="#989899"/>
<path d="M47.7489 67.4149C47.7489 67.4149 55.3475 77.2147 63.9413 79.197C63.9413 79.197 64.5463 78.99 63.0576 77.8914C61.5689 76.7968 57.497 77.374 48.8037 67.4109C48.7997 67.4149 46.7657 66.2367 47.7489 67.4149Z" fill="#989899"/>
<path d="M38.4101 35.6387L33.2395 26.1652C33.2395 26.1652 31.2333 23.2834 32.7618 27.033L37.614 35.9691H38.4578L38.4101 35.6387Z" fill="#989899"/>
<path d="M3.80032 10.8926C5.23328 11.2548 6.66226 11.6091 8.09124 11.9792C8.40569 12.0628 8.72015 12.1783 9.0147 12.3096C10.2168 12.851 11.399 13.4202 12.7245 13.6311C13.0947 13.6908 13.4609 13.9177 13.7793 14.1406C16.0203 15.7169 18.2493 17.3051 20.4744 18.9012C21.6407 19.7371 22.7313 20.6566 23.7383 21.6955C25.1952 23.2001 26.7277 24.645 28.3238 25.9983C30.0314 27.4472 31.4405 29.119 32.6943 30.958C34.589 33.7443 37.033 35.9574 39.9109 37.7008C40.0223 37.7685 40.1417 37.8322 40.2651 37.88C41.6384 38.3934 42.721 39.2492 43.7122 40.3518C45.774 42.6485 47.6648 45.0447 49.1534 47.7514C50.5824 50.3467 51.5775 53.0852 51.8482 56.0546C51.884 56.4646 51.896 56.8826 51.8761 57.2926C51.8562 57.7463 52.095 57.9732 52.4851 58.0608C52.7876 58.1285 53.106 58.1643 53.4165 58.1722C54.2086 58.1882 55.0047 58.1961 55.7968 58.1683C58.0656 58.0926 60.3106 58.3275 62.5436 58.7016C63.893 58.9285 65.2583 59.04 66.6037 59.2788C67.1928 59.3823 67.762 59.653 68.3193 59.8918C68.984 60.1744 69.1512 60.7794 69.2188 61.4322C69.2825 62.0372 69.4059 62.6423 69.4099 63.2513C69.4139 63.8404 69.2945 64.4255 69.2427 65.0146C69.1472 66.0654 69.0715 67.1203 68.9641 68.1671C68.781 69.9384 68.578 71.7057 68.3869 73.477C68.1521 75.6782 67.9331 77.8834 68.4426 80.0766C68.7332 81.3304 69.3701 82.2658 70.6637 82.6878C71.2847 82.8908 71.8579 83.253 72.4748 83.4719C73.06 83.6789 73.673 83.7943 74.274 83.9535C74.4133 83.9894 74.5606 84.0292 74.6919 84.0889C75.0581 84.26 75.4243 84.4392 75.7826 84.6262C75.8622 84.666 75.9219 84.7496 76.097 84.9128C75.7866 85.0004 75.5716 85.1118 75.3527 85.1158C71.8698 85.1835 68.3829 85.2472 64.9001 85.291C63.8253 85.3029 63.4233 84.8332 63.7617 83.8301C64.5577 81.4419 64.3826 78.982 64.2234 76.5658C64.1159 74.9657 63.9368 73.3417 63.4631 71.7575C62.882 69.811 63.1327 67.8367 63.8094 65.9261C63.885 65.7152 63.9368 65.4962 64.0204 65.2176C63.7497 65.1897 63.5467 65.146 63.3397 65.1499C61.6958 65.1818 60.0837 65.3848 58.5473 66.0057C57.2258 66.5431 55.8446 66.7421 54.4355 66.762C52.4214 66.7899 50.3993 66.8297 48.3932 66.7143C47.1513 66.6426 45.9293 66.2844 44.6993 66.0654C44.3252 65.9978 43.9431 65.9858 43.5729 65.9102C43.0156 65.8027 42.6693 66.157 42.2474 66.4078C41.4274 66.8934 40.5676 67.3193 39.6999 67.7173C38.9556 68.0596 38.1913 68.386 37.4032 68.6169C35.8906 69.0587 34.597 69.9145 33.2675 70.7027C31.536 71.7256 29.8404 72.868 27.882 73.3735C25.9236 73.8751 24.021 74.5517 22.0347 74.9737C20.1042 75.3837 18.1976 76.0404 16.5935 77.3181C15.0849 78.5202 13.3693 79.3561 11.598 80.0965C9.97796 80.7732 8.40967 81.5613 7.17176 82.843C6.75381 83.2769 6.44732 83.85 6.18859 84.4033C5.98161 84.8452 6.20452 85.2631 6.63042 85.486C7.11604 85.7408 7.39466 86.1388 7.63349 86.6045C7.78475 86.8951 8.00765 87.1459 8.17881 87.4285C8.36191 87.731 8.23453 88.0136 7.9161 87.9778C6.70604 87.8464 5.46813 87.8066 4.30186 87.5081C3.18336 87.2215 2.09272 86.7279 1.08169 86.1627C0.62394 85.9079 0.313467 85.2949 0.0626996 84.7815C-0.136322 84.3755 0.166186 83.9854 0.580152 83.7346C1.12547 83.4082 1.6907 83.0818 2.14845 82.648C2.95249 81.8837 3.76848 81.1593 4.70786 80.5542C5.22532 80.2239 5.70696 79.7661 6.0652 79.2686C7.21156 77.6843 8.42559 76.128 9.04654 74.2293C9.11421 74.0184 9.23363 73.7716 9.40479 73.6561C10.4556 72.9476 11.1283 71.9008 11.9085 70.9415C12.3105 70.4439 12.7762 69.9862 13.2698 69.5802C15.0092 68.1512 16.3148 66.3321 17.7717 64.6484C18.6275 63.6573 19.543 62.7458 20.5819 61.9417C21.1152 61.5317 21.561 60.9625 21.9193 60.3854C22.58 59.3226 23.1333 58.1961 23.7503 57.1095C24.2439 56.2417 24.5862 55.2944 24.415 54.3231C24.3036 53.6823 24.216 53.0813 24.2638 52.4324C24.2956 51.9787 23.9214 51.6921 23.4517 51.6523C22.8825 51.6045 22.584 51.3259 22.5243 50.7607C22.4328 49.9049 22.2138 49.1247 21.4098 48.6152C21.0316 48.3764 20.956 47.9186 21.0715 47.4967C21.171 47.1186 20.9958 47.0031 20.6933 46.9832C20.2992 46.9554 19.9052 46.9514 19.5071 46.9554C18.7747 46.9633 18.0662 46.7922 17.704 46.1314C16.9915 44.8378 16.3268 43.5123 15.7496 42.1549C15.5386 41.6534 15.5466 41.0046 15.6262 40.4473C15.7377 39.6712 15.6342 38.8114 16.2472 38.1626C16.2989 38.1068 16.3307 38.0153 16.3427 37.9357C16.478 36.9008 17.29 36.3196 17.911 35.6151C17.9627 35.5554 18.0503 35.4837 18.11 35.4877C19.0374 35.5872 19.6942 34.9225 20.4863 34.6439C20.8844 34.5006 21.2386 34.4249 21.6247 34.5921C22.0626 34.7832 22.4049 34.6558 22.7472 34.3493C23.1134 34.0189 23.5154 33.7284 23.9214 33.4457C24.2638 33.2069 24.618 33.2228 24.8807 33.5771C25.0837 33.8518 25.3305 33.9353 25.6529 33.8955C26.1903 33.8239 26.6998 33.8756 27.1735 34.1901C27.269 34.2538 27.4402 34.21 27.5755 34.214C27.5755 34.0906 27.6153 33.9552 27.5755 33.8478C27.2332 32.9562 26.9665 32.0208 26.4968 31.2008C26.0589 30.4405 25.442 29.7678 24.829 29.1349C23.8896 28.1637 23.0935 27.1049 22.5442 25.867C22.1581 24.9953 21.5491 24.3425 20.7092 23.8608C20.2037 23.5703 19.742 23.1683 19.3439 22.7384C17.3537 20.5929 15.3635 18.4554 13.0509 16.6403C12.6767 16.3458 12.2667 16.091 11.8448 15.8721C11.606 15.7487 11.2915 15.6412 11.0487 15.693C10.4158 15.8283 9.8904 15.6293 9.43663 15.2591C7.98377 14.0729 6.43538 13.0579 4.72777 12.2738C4.13469 11.9991 3.58539 11.6051 3.40627 10.8966C3.53762 10.8926 3.66897 10.8926 3.80032 10.8926ZM15.7655 71.252C15.7974 71.2957 15.8292 71.3355 15.8611 71.3793C15.9566 71.3594 16.0521 71.3475 16.1437 71.3236C17.7438 70.9415 19.34 70.5434 20.9441 70.1852C22.3492 69.8707 23.7184 69.4966 24.8966 68.605C27.9855 66.2764 30.9827 63.8483 33.6616 61.0421C33.9442 60.7476 34.3104 60.5326 34.597 60.2421C34.7801 60.055 35.0308 59.7803 35.007 59.5733C34.9154 58.8569 35.3692 58.3792 35.6478 57.8259C35.6996 57.7264 35.8031 57.6388 35.819 57.5393C35.9304 56.7472 36.5116 56.2616 37.0529 55.8118C37.4111 55.5133 37.5505 55.1789 37.634 54.7849C37.6739 54.5938 37.5584 54.3789 37.5743 54.1759C37.6102 53.7221 37.5664 53.7181 37.0927 53.7659C36.7385 53.8017 36.3683 53.6942 36.01 53.6385C35.8827 53.6186 35.7513 53.5032 35.6438 53.5271C34.8239 53.7261 34.0079 53.336 33.1561 53.5947C32.4157 53.8176 31.5878 53.7699 30.7957 53.8137C30.4613 53.8336 30.2503 53.9609 30.1031 54.2674C29.5617 55.3979 29.0204 56.5243 28.4512 57.6349C28.1885 58.1444 27.87 58.63 27.5516 59.1076C26.9864 59.9555 26.3654 60.7715 25.8281 61.6392C24.4588 63.8324 22.9781 65.946 20.9321 67.5621C19.7698 68.4776 18.4802 69.2299 17.2622 70.0777C16.7447 70.436 16.2631 70.8579 15.7655 71.252ZM28.8771 36.041C28.5069 36.7654 28.4392 37.454 28.9726 38.0153C29.1637 38.2143 29.5975 38.1825 29.92 38.2581C29.7329 37.3744 29.6851 36.5346 28.8771 36.041ZM27.1297 43.4207C26.8471 43.6954 26.7117 43.9461 26.863 44.3084C26.9943 44.6308 27.1177 44.9612 27.1854 45.2995C27.2451 45.61 27.4202 45.6697 27.6233 45.5224C27.7745 45.4149 27.9457 45.1841 27.9337 45.0209C27.8899 44.4079 27.6193 43.8825 27.1297 43.4207Z" fill="#D881AB"/>
<path d="M69.3222 79.1969L68.8525 78.0505C68.8525 78.0505 72.7693 75.7021 72.6101 74.1338C72.4548 72.5655 75.6631 71.7853 75.6631 71.7853C75.6631 71.7853 77.7011 71.0012 77.1518 66.5391C77.1518 66.5391 75.7745 64.5011 77.2473 63.092C77.2473 63.092 78.2822 61.7586 77.2473 59.2549C76.2124 56.7472 79.0345 54.7889 79.0345 54.7889C79.0345 54.7889 79.1141 53.0653 78.0155 52.516C76.9209 51.9667 79.0345 48.1296 79.0345 48.1296C79.0345 48.1296 79.9978 47.6758 77.9877 45.395C77.9877 45.395 81.1919 48.0778 79.7191 51.0035C79.7191 51.0035 79.3012 53.5072 80.1052 54.0286C80.9093 54.55 79.1977 58.0329 79.1977 58.0329C79.1977 58.0329 78.3698 59.4181 79.3251 61.1735C80.2804 62.9288 78.8634 64.0911 78.8634 64.0911C78.8634 64.0911 77.9717 66.555 78.7758 68.9711C79.5759 71.3873 76.5308 73.0392 76.5308 73.0392C76.5308 73.0392 73.9157 73.7676 74.5525 75.3956C75.1894 77.0276 71.2727 77.8077 71.2727 77.8077C71.2727 77.8077 69.7919 78.4645 69.3222 79.1969Z" fill="#989899"/>
<path d="M48.4492 45.8608L48.9189 46.6848C48.9189 46.6808 74.0594 47.2699 48.4492 45.8608Z" fill="#989899"/>
<path d="M49.5713 47.7236L49.8022 48.4481C49.8061 48.4481 64.0999 49.686 49.5713 47.7236Z" fill="#989899"/>
<path d="M43.7158 40.2602L44.5238 40.7537C44.5278 40.7537 66.8223 29.1229 43.7158 40.2602Z" fill="#989899"/>
<path d="M44.8906 41.0443L45.4558 41.7249C45.4558 41.7249 62.1657 36.8847 44.8906 41.0443Z" fill="#989899"/>
</svg>
