<svg width="224" height="267" viewBox="0 0 224 267" fill="none" xmlns="http://www.w3.org/2000/svg">
<path d="M109.61 85.865C110.86 82.815 112.5 79.1451 116.24 72.025C118.51 67.705 120.47 63.975 123.45 59.045C125.32 55.945 127 53.355 128.3 51.395C132.48 45.125 136.45 40.295 139.41 36.935C152.41 22.195 164.83 14.675 167.59 13.025C173.74 9.34505 179.81 6.90505 179.81 6.90505C185.45 4.63505 189.76 3.61504 195.14 2.33504C202.85 0.505043 206.78 -0.394955 210.32 0.165045C213.03 0.595045 220.4 1.77505 222.77 7.49505C224.7 12.155 222.68 18.305 217.8 22.695C217.8 22.695 228.92 -2.84496 196.25 10.535C163.58 23.915 111.84 91.995 111.84 91.995L156.11 55.395C174.32 42.855 196.76 45.485 196.77 45.815C196.77 45.885 195.85 45.795 194.13 45.805C190.55 45.825 186.7 46.195 181.03 47.385C178.1 48.005 172.1 49.265 165.55 52.105C159.7 54.645 155.37 57.595 147.71 63.645C141.2 68.785 132.89 75.695 123.49 84.425C111.56 94.795 107.97 96.105 106.98 95.255C106.1 94.515 107.26 91.625 109.61 85.865Z" fill="#989899"/>
<path d="M102.29 92.1851C102.81 92.0751 103.26 91.6451 103.78 91.1551C103.86 91.0751 103.92 91.0151 103.97 90.9651C105.23 85.5751 106.74 81.4451 107.88 78.6651C108.35 77.5351 112.25 68.0451 111.49 62.7351C110.84 58.1451 108.15 68.4651 108.15 68.4651L101.66 91.1351C100.95 91.3451 100.81 91.5251 100.81 91.6451C100.81 91.9351 101.61 92.3351 102.29 92.1851Z" fill="#989899"/>
<path d="M192.14 110.855L177.49 107.165C177.49 107.165 205.91 106.945 208.26 79.885C208.26 79.885 200.38 104.185 174.41 105.955C174.4 105.965 171.51 109.655 192.14 110.855Z" fill="#989899"/>
<path d="M122.37 169.365C122.37 169.365 141.46 193.985 163.05 198.965C163.05 198.965 164.57 198.445 160.83 195.685C157.09 192.935 146.86 194.385 125.02 169.355C125.01 169.365 119.9 166.405 122.37 169.365Z" fill="#989899"/>
<path d="M98.91 89.5351L85.92 65.735C85.92 65.735 80.88 58.4951 84.72 67.9151L96.91 90.3651H99.03L98.91 89.5351Z" fill="#989899"/>
<path d="M11.96 27.365C15.56 28.275 19.15 29.165 22.74 30.095C23.53 30.305 24.32 30.595 25.06 30.925C28.08 32.285 31.05 33.715 34.38 34.245C35.31 34.395 36.23 34.965 37.03 35.525C42.66 39.485 48.26 43.475 53.85 47.485C56.78 49.585 59.52 51.895 62.05 54.505C65.71 58.285 69.56 61.915 73.57 65.315C77.86 68.955 81.4 73.155 84.55 77.775C89.31 84.775 95.45 90.335 102.68 94.715C102.96 94.885 103.26 95.045 103.57 95.165C107.02 96.455 109.74 98.605 112.23 101.375C117.41 107.145 122.16 113.165 125.9 119.965C129.49 126.485 131.99 133.365 132.67 140.825C132.76 141.855 132.79 142.905 132.74 143.935C132.69 145.075 133.29 145.645 134.27 145.865C135.03 146.035 135.83 146.125 136.61 146.145C138.6 146.185 140.6 146.205 142.59 146.135C148.29 145.945 153.93 146.535 159.54 147.475C162.93 148.045 166.36 148.325 169.74 148.925C171.22 149.185 172.65 149.865 174.05 150.465C175.72 151.175 176.14 152.695 176.31 154.335C176.47 155.855 176.78 157.375 176.79 158.905C176.8 160.385 176.5 161.855 176.37 163.335C176.13 165.975 175.94 168.625 175.67 171.255C175.21 175.705 174.7 180.145 174.22 184.595C173.63 190.125 173.08 195.665 174.36 201.175C175.09 204.325 176.69 206.675 179.94 207.735C181.5 208.245 182.94 209.155 184.49 209.705C185.96 210.225 187.5 210.515 189.01 210.915C189.36 211.005 189.73 211.105 190.06 211.255C190.98 211.685 191.9 212.135 192.8 212.605C193 212.705 193.15 212.915 193.59 213.325C192.81 213.545 192.27 213.825 191.72 213.835C182.97 214.005 174.21 214.165 165.46 214.275C162.76 214.305 161.75 213.125 162.6 210.605C164.6 204.605 164.16 198.425 163.76 192.355C163.49 188.335 163.04 184.255 161.85 180.275C160.39 175.385 161.02 170.425 162.72 165.625C162.91 165.095 163.04 164.545 163.25 163.845C162.57 163.775 162.06 163.665 161.54 163.675C157.41 163.755 153.36 164.265 149.5 165.825C146.18 167.175 142.71 167.675 139.17 167.725C134.11 167.795 129.03 167.895 123.99 167.605C120.87 167.425 117.8 166.525 114.71 165.975C113.77 165.805 112.81 165.775 111.88 165.585C110.48 165.315 109.61 166.205 108.55 166.835C106.49 168.055 104.33 169.125 102.15 170.125C100.28 170.985 98.36 171.805 96.38 172.385C92.58 173.495 89.33 175.645 85.99 177.625C81.64 180.195 77.38 183.065 72.46 184.335C67.54 185.595 62.76 187.295 57.77 188.355C52.92 189.385 48.13 191.035 44.1 194.245C40.31 197.265 36 199.365 31.55 201.225C27.48 202.925 23.54 204.905 20.43 208.125C19.38 209.215 18.61 210.655 17.96 212.045C17.44 213.155 18 214.205 19.07 214.765C20.29 215.405 20.99 216.405 21.59 217.575C21.97 218.305 22.53 218.935 22.96 219.645C23.42 220.405 23.1 221.115 22.3 221.025C19.26 220.695 16.15 220.595 13.22 219.845C10.41 219.125 7.66999 217.885 5.12999 216.465C3.97999 215.825 3.19999 214.285 2.56999 212.995C2.06999 211.975 2.82998 210.995 3.86998 210.365C5.23998 209.545 6.65999 208.725 7.80999 207.635C9.82999 205.715 11.88 203.895 14.24 202.375C15.54 201.545 16.75 200.395 17.65 199.145C20.53 195.165 23.58 191.255 25.14 186.485C25.31 185.955 25.61 185.335 26.04 185.045C28.68 183.265 30.37 180.635 32.33 178.225C33.34 176.975 34.51 175.825 35.75 174.805C40.12 171.215 43.4 166.645 47.06 162.415C49.21 159.925 51.51 157.635 54.12 155.615C55.46 154.585 56.58 153.155 57.48 151.705C59.14 149.035 60.53 146.205 62.08 143.475C63.32 141.295 64.18 138.915 63.75 136.475C63.47 134.865 63.25 133.355 63.37 131.725C63.45 130.585 62.51 129.865 61.33 129.765C59.9 129.645 59.15 128.945 59 127.525C58.77 125.375 58.22 123.415 56.2 122.135C55.25 121.535 55.06 120.385 55.35 119.325C55.6 118.375 55.16 118.085 54.4 118.035C53.41 117.965 52.42 117.955 51.42 117.965C49.58 117.985 47.8 117.555 46.89 115.895C45.1 112.645 43.43 109.315 41.98 105.905C41.45 104.645 41.47 103.015 41.67 101.615C41.95 99.665 41.69 97.505 43.23 95.875C43.36 95.735 43.44 95.505 43.47 95.305C43.81 92.705 45.85 91.245 47.41 89.475C47.54 89.325 47.76 89.145 47.91 89.155C50.24 89.405 51.89 87.735 53.88 87.035C54.88 86.675 55.77 86.485 56.74 86.905C57.84 87.385 58.7 87.065 59.56 86.295C60.48 85.465 61.49 84.735 62.51 84.025C63.37 83.425 64.26 83.465 64.92 84.355C65.43 85.045 66.05 85.255 66.86 85.155C68.21 84.975 69.49 85.105 70.68 85.895C70.92 86.055 71.35 85.945 71.69 85.955C71.69 85.645 71.79 85.305 71.69 85.035C70.83 82.795 70.16 80.445 68.98 78.385C67.88 76.475 66.33 74.785 64.79 73.195C62.43 70.755 60.43 68.095 59.05 64.985C58.08 62.795 56.55 61.155 54.44 59.945C53.17 59.215 52.01 58.205 51.01 57.125C46.01 51.735 41.01 46.365 35.2 41.805C34.26 41.065 33.23 40.425 32.17 39.875C31.57 39.565 30.78 39.295 30.17 39.425C28.58 39.765 27.26 39.265 26.12 38.335C22.47 35.355 18.58 32.805 14.29 30.835C12.8 30.145 11.42 29.155 10.97 27.375C11.3 27.365 11.63 27.365 11.96 27.365ZM42.02 179.005C42.1 179.115 42.18 179.215 42.26 179.325C42.5 179.275 42.74 179.245 42.97 179.185C46.99 178.225 51 177.225 55.03 176.325C58.56 175.535 62 174.595 64.96 172.355C72.72 166.505 80.25 160.405 86.98 153.355C87.69 152.615 88.61 152.075 89.33 151.345C89.79 150.875 90.42 150.185 90.36 149.665C90.13 147.865 91.27 146.665 91.97 145.275C92.1 145.025 92.36 144.805 92.4 144.555C92.68 142.565 94.14 141.345 95.5 140.215C96.4 139.465 96.75 138.625 96.96 137.635C97.06 137.155 96.77 136.615 96.81 136.105C96.9 134.965 96.79 134.955 95.6 135.075C94.71 135.165 93.78 134.895 92.88 134.755C92.56 134.705 92.23 134.415 91.96 134.475C89.9 134.975 87.85 133.995 85.71 134.645C83.85 135.205 81.77 135.085 79.78 135.195C78.94 135.245 78.41 135.565 78.04 136.335C76.68 139.175 75.32 142.005 73.89 144.795C73.23 146.075 72.43 147.295 71.63 148.495C70.21 150.625 68.65 152.675 67.3 154.855C63.86 160.365 60.14 165.675 55 169.735C52.08 172.035 48.84 173.925 45.78 176.055C44.48 176.955 43.27 178.015 42.02 179.005ZM74.96 90.545C74.03 92.365 73.86 94.095 75.2 95.505C75.68 96.005 76.77 95.925 77.58 96.115C77.11 93.895 76.99 91.785 74.96 90.545ZM70.57 109.085C69.86 109.775 69.52 110.405 69.9 111.315C70.23 112.125 70.54 112.955 70.71 113.805C70.86 114.585 71.3 114.735 71.81 114.365C72.19 114.095 72.62 113.515 72.59 113.105C72.48 111.565 71.8 110.245 70.57 109.085Z" fill="#F0B4D2"/>
<path d="M81.39 193.785L76.58 199.875C76.49 200.025 76.32 200.255 76.08 200.565C75.65 201.145 75 201.985 74.11 203.085C73.22 204.185 72.57 205.025 72.14 205.605L70.22 208.075V220.025V224.875H63.86V209.685L53.24 193.755H60.56C63.43 198.055 65.64 201.365 67.2 203.685L67.57 204.185L67.8 204.555L67.94 204.785L68.08 205.015L68.4 205.425V205.475L68.49 205.615L68.58 205.755L68.63 205.805L69.32 206.855L76.55 197.605L79.57 193.805H81.39V193.785Z" fill="#F0B4D2"/>
<path d="M99.84 222.345L100.25 222.985C98.36 224.545 95.7 225.315 92.29 225.315C89.67 225.315 87.27 224.305 85.1 222.295C82.93 220.285 81.85 217.555 81.85 214.105C81.85 210.935 82.94 208.265 85.12 206.095C87.3 203.925 89.96 202.845 93.11 202.845C95.25 202.845 97.17 203.405 98.88 204.515C100.59 205.625 101.75 207.365 102.36 209.705L97.78 211.265C97.54 211.355 97.21 211.475 96.8 211.605C96.39 211.745 95.66 212.045 94.63 212.495C93.59 212.955 92.68 213.405 91.88 213.845C91.09 214.285 90.36 214.835 89.71 215.495C89.05 216.155 88.74 216.765 88.77 217.345C91.32 221.015 95.01 222.685 99.84 222.345ZM87.98 215.985C88.16 215.375 88.95 214.635 90.34 213.765C91.73 212.895 92.98 212.205 94.09 211.705C95.2 211.205 96.29 210.735 97.36 210.305L96.76 208.935C94.87 205.705 92.85 204.085 90.72 204.085C89.26 204.085 88.11 204.585 87.29 205.595C86.47 206.605 86.05 207.865 86.05 209.395C86.05 209.455 86.06 209.555 86.07 209.695C86.09 209.835 86.09 209.945 86.09 210.035C86.41 212.195 87.04 214.185 87.98 215.985Z" fill="#989899"/>
<path d="M120.66 224.905V218.035C120.57 219.495 119.8 221.085 118.35 222.795C116.9 224.505 115.17 225.355 113.15 225.355C110.65 225.355 108.67 224.575 107.22 223.025C105.77 221.465 105.05 219.635 105.05 217.535C105.05 214.875 105.95 212.715 107.75 211.035C109.55 209.355 111.79 208.515 114.48 208.515C116.83 208.515 118.75 209.125 120.25 210.345C119.94 206.045 118.72 203.895 116.59 203.895C114.48 203.895 113.07 205.255 112.33 207.965L107.62 207.275C108.66 205.745 109.82 204.625 111.1 203.915C112.38 203.195 114.01 202.835 116 202.835C119.66 202.835 122.4 203.805 124.22 205.745C126.03 207.685 126.94 210.385 126.94 213.865V224.895H120.66V224.905ZM120.16 212.555L120.25 211.685C119.27 211.015 118.27 210.675 117.23 210.675C115.52 210.675 114 211.395 112.65 212.825C111.31 214.255 110.64 215.835 110.64 217.535C110.64 219.765 111.25 221.305 112.47 222.155L112.56 222.205L112.79 222.295C113.28 222.535 113.8 222.665 114.35 222.665C117.79 222.665 119.73 219.295 120.16 212.555Z" fill="#989899"/>
<path d="M152.65 209.625V220.835V224.905H146.38V211.405V208.015C146.38 207.375 146.24 206.795 145.97 206.275C145.7 205.755 145.31 205.465 144.83 205.405C143.82 205.315 142.97 206.045 142.27 207.605C141.78 208.675 141.32 210.275 140.9 212.415C140.63 213.665 140.31 215.575 139.94 218.135C139.69 220.115 139.53 221.705 139.44 222.895C139.32 223.815 139.26 224.485 139.26 224.905H132.99V193.875H139.26V217.075C139.32 216.345 139.38 215.805 139.44 215.475C139.9 211.905 140.58 209.125 141.5 207.145C142.17 205.585 143.04 204.465 144.11 203.755C144.75 203.295 145.56 203.005 146.54 202.885C147.52 202.765 148.31 202.825 148.92 203.065C150.14 203.495 151.07 204.335 151.71 205.585C152.33 206.845 152.65 208.185 152.65 209.625Z" fill="#989899"/>
<path d="M22.47 243.835C23.6 245.295 24.19 246.995 24.26 248.915C24.26 249.185 24.24 249.405 24.21 249.555C23.81 251.385 22.96 252.915 21.65 254.135C20.34 255.355 18.57 256.285 16.34 256.925C14.6 257.385 12.8 257.615 10.94 257.615H10.57C7.46001 257.435 4.82998 256.575 2.69998 255.055C1.84998 254.415 1.15998 253.725 0.639984 252.995L3.75 246.355C3.81 246.595 3.90999 246.935 4.04999 247.365C4.18999 247.795 4.49 248.555 4.97 249.655C5.44 250.755 5.94998 251.715 6.47998 252.535C7.00998 253.355 7.71999 254.115 8.60999 254.805C9.48999 255.495 10.42 255.835 11.4 255.835C13.78 255.835 15.43 255.015 16.34 253.365C16.68 252.875 16.89 252.285 16.98 251.575V251.535C17.16 250.585 16.98 249.705 16.43 248.875C15.76 247.835 14.69 246.865 13.23 245.945C12.62 245.545 11.35 244.875 9.42999 243.935C8.35999 243.475 7.25 242.925 6.09 242.285C5.02 241.705 4.08 241.115 3.25 240.495C2.73 240.155 2.25999 239.745 1.82999 239.255C0.669987 237.795 0.06 236.115 0 234.225C0 234.135 0.00998901 234.015 0.019989 233.855C0.039989 233.705 0.0400085 233.595 0.0400085 233.535C0.440009 231.705 1.29001 230.195 2.60001 229.005C3.91001 227.725 5.68 226.795 7.91 226.215C9.65 225.725 11.45 225.485 13.31 225.485H13.68C16.82 225.665 19.45 226.535 21.55 228.095C22.5 228.765 23.18 229.435 23.61 230.105L20.5 236.745C20.44 236.505 20.34 236.165 20.2 235.735C20.06 235.305 19.76 234.545 19.28 233.445C18.81 232.345 18.3 231.385 17.77 230.565C17.24 229.745 16.53 228.985 15.64 228.295C14.75 227.605 13.82 227.265 12.85 227.265C10.47 227.265 8.82 228.085 7.91 229.735C7.57 230.315 7.35999 230.905 7.26999 231.525V231.575C7.08999 232.525 7.27001 233.425 7.82001 234.275C8.46001 235.225 9.52999 236.185 11.02 237.155C11.78 237.615 13.05 238.285 14.82 239.165C16.56 240.015 17.67 240.565 18.16 240.815C19.17 241.365 20.13 241.955 21.04 242.605C21.51 242.935 21.98 243.345 22.47 243.835Z" fill="#F0B4D2"/>
<path d="M38.53 237.105H36.38V248.825C36.38 249.005 36.39 249.355 36.43 249.855C36.46 250.355 36.48 250.745 36.5 251.025C36.52 251.295 36.55 251.665 36.59 252.125C36.64 252.585 36.7 252.955 36.8 253.245C36.89 253.535 37.01 253.835 37.17 254.165C37.32 254.485 37.51 254.745 37.74 254.945C37.97 255.145 38.24 255.285 38.54 255.375V256.935C35.06 257.025 32.62 256.205 31.22 254.465C30.85 253.975 30.58 253.295 30.4 252.425C30.22 251.555 30.11 250.755 30.08 250.025C30.05 249.295 30.03 248.145 30.03 246.595V237.125H27.92V235.385C28.07 235.385 28.27 235.375 28.52 235.365C28.76 235.355 29.22 235.245 29.89 235.045C30.56 234.845 31.17 234.575 31.72 234.225C32.27 233.875 32.8 233.305 33.32 232.535C33.84 231.755 34.19 230.815 34.37 229.725H36.38V235.405H38.53V237.105Z" fill="#989899"/>
<path d="M59.81 235.145C60.91 235.605 61.72 236.245 62.24 237.065L59.45 242.835L59.22 241.965C58.91 240.895 58.45 239.885 57.82 238.925C57.19 237.965 56.5 237.485 55.74 237.485C54.7 237.485 53.85 238.215 53.18 239.685C52.91 240.295 52.68 240.905 52.49 241.515C52.25 242.335 52.01 243.355 51.78 244.555C51.55 245.765 51.38 246.765 51.25 247.555L51.07 248.745C51.04 248.925 51 249.175 50.96 249.495C50.92 249.815 50.88 250.055 50.85 250.205C50.61 252.185 50.44 253.775 50.35 254.965C50.23 255.885 50.17 256.555 50.17 256.975H43.9V235.375H50.17V249.155C50.23 248.425 50.29 247.885 50.35 247.555C50.81 243.985 51.49 241.205 52.41 239.225C53.08 237.665 53.95 236.545 55.02 235.835C55.66 235.375 56.47 235.085 57.45 234.945C58.41 234.795 59.2 234.865 59.81 235.145Z" fill="#989899"/>
<path d="M83.02 254.405L83.43 255.045C81.54 256.605 78.88 257.375 75.47 257.375C72.85 257.375 70.45 256.365 68.28 254.355C66.11 252.345 65.03 249.615 65.03 246.165C65.03 242.995 66.12 240.325 68.3 238.155C70.48 235.985 73.14 234.905 76.29 234.905C78.43 234.905 80.35 235.465 82.06 236.575C83.77 237.685 84.93 239.415 85.54 241.765L80.96 243.325C80.72 243.415 80.39 243.535 79.98 243.665C79.57 243.805 78.84 244.095 77.81 244.555C76.77 245.015 75.86 245.465 75.06 245.905C74.27 246.345 73.54 246.895 72.89 247.555C72.23 248.215 71.92 248.825 71.95 249.405C74.51 253.085 78.2 254.745 83.02 254.405ZM71.16 248.045C71.34 247.435 72.13 246.695 73.52 245.825C74.91 244.955 76.16 244.265 77.27 243.765C78.38 243.265 79.47 242.795 80.54 242.365L79.94 240.995C78.05 237.765 76.03 236.145 73.9 236.145C72.44 236.145 71.29 236.645 70.47 237.655C69.65 238.665 69.23 239.925 69.23 241.455C69.23 241.515 69.24 241.615 69.25 241.755C69.27 241.895 69.27 242.005 69.27 242.095C69.59 244.265 70.22 246.245 71.16 248.045Z" fill="#989899"/>
<path d="M99.4 237.105H97.25V248.825C97.25 249.005 97.26 249.355 97.3 249.855C97.33 250.355 97.35 250.745 97.37 251.025C97.39 251.295 97.42 251.665 97.46 252.125C97.51 252.585 97.57 252.955 97.67 253.245C97.76 253.535 97.88 253.835 98.04 254.165C98.19 254.485 98.38 254.745 98.61 254.945C98.84 255.145 99.11 255.285 99.41 255.375V256.935C95.93 257.025 93.49 256.205 92.09 254.465C91.72 253.975 91.45 253.295 91.27 252.425C91.09 251.555 90.98 250.755 90.95 250.025C90.92 249.295 90.9 248.145 90.9 246.595V237.125H88.79V235.385C88.94 235.385 89.14 235.375 89.39 235.365C89.63 235.355 90.09 235.245 90.76 235.045C91.43 234.845 92.04 234.575 92.59 234.225C93.14 233.875 93.67 233.305 94.19 232.535C94.71 231.755 95.06 230.815 95.24 229.725H97.25V235.405H99.4V237.105Z" fill="#989899"/>
<path d="M107.5 242.055C107.53 242.235 107.57 242.485 107.61 242.805C107.66 243.125 107.8 243.735 108.05 244.635C108.29 245.535 108.59 246.395 108.94 247.225C109.29 248.045 109.82 248.945 110.54 249.925C111.26 250.905 112.07 251.725 112.99 252.395C113.91 253.065 115.08 253.605 116.51 253.995C117.94 254.395 119.51 254.525 121.22 254.405L121.63 255.095C120.1 256.315 118.2 257.065 115.91 257.335C113.47 257.665 111.15 257.215 108.95 255.965C106.75 254.715 105.15 252.915 104.14 250.565C102.92 247.725 102.87 244.865 104 241.985C105.13 239.105 107.1 237.045 109.9 235.825C111.36 235.215 112.81 234.905 114.25 234.905C117.18 234.905 119.74 235.925 121.94 237.975L118.14 240.995C116.25 237.795 114.22 236.185 112.05 236.185C111.41 236.185 110.8 236.305 110.22 236.555C108.21 237.415 107.29 239.245 107.5 242.055Z" fill="#989899"/>
<path d="M146.5 241.685V252.895V256.965H140.23V243.465V240.075C140.23 239.435 140.09 238.855 139.82 238.335C139.55 237.815 139.16 237.525 138.68 237.465C137.67 237.375 136.82 238.105 136.12 239.665C135.63 240.735 135.17 242.335 134.75 244.475C134.48 245.725 134.16 247.635 133.79 250.195C133.54 252.175 133.38 253.765 133.29 254.955C133.17 255.875 133.11 256.545 133.11 256.965H126.84V225.945H133.11V249.155C133.17 248.425 133.23 247.885 133.29 247.555C133.75 243.985 134.43 241.205 135.35 239.225C136.02 237.665 136.89 236.545 137.96 235.835C138.6 235.375 139.41 235.085 140.39 234.965C141.37 234.845 142.16 234.905 142.77 235.145C143.99 235.575 144.92 236.415 145.56 237.665C146.18 238.905 146.5 240.255 146.5 241.685Z" fill="#989899"/>
<path d="M158.58 232.445C158.18 233.205 157.57 233.715 156.75 233.955C155.93 234.195 155.14 234.115 154.39 233.705C153.64 233.295 153.15 232.695 152.9 231.895C152.65 231.075 152.73 230.275 153.13 229.515C153.53 228.755 154.14 228.245 154.96 228.005C155.78 227.795 156.57 227.885 157.32 228.275C158.07 228.675 158.56 229.265 158.81 230.065C159.05 230.885 158.98 231.675 158.58 232.445ZM152.77 235.325H159.13V246.125V256.835H152.77V235.325Z" fill="#989899"/>
<path d="M181.51 235.145C182.73 235.575 183.66 236.415 184.3 237.665C184.94 238.915 185.26 240.255 185.26 241.695V256.985H178.99V243.485V240.095C178.99 239.455 178.85 238.875 178.58 238.355C178.31 237.835 177.92 237.545 177.44 237.485C176.43 237.395 175.58 238.125 174.88 239.685C174.39 240.755 173.93 242.355 173.51 244.495C173.24 245.745 172.92 247.655 172.55 250.215C172.3 252.195 172.14 253.785 172.05 254.975C171.93 255.895 171.87 256.565 171.87 256.985H165.6V235.385H171.87V249.165C171.93 248.435 171.99 247.895 172.05 247.565C172.51 243.995 173.19 241.215 174.11 239.235C174.78 237.675 175.65 236.555 176.72 235.845C177.36 235.385 178.17 235.095 179.15 234.975C180.11 234.835 180.9 234.895 181.51 235.145Z" fill="#989899"/>
<path d="M208.79 253.865C210.07 254.355 211.02 255.215 211.63 256.455C212.24 257.695 212.41 258.965 212.13 260.275C211.61 262.385 210.34 263.955 208.31 265.015C206.28 266.065 204.05 266.595 201.6 266.595C199.95 266.595 198.32 266.325 196.7 265.795C195.08 265.265 193.66 264.365 192.42 263.115C191.18 261.865 190.57 260.395 190.57 258.725C190.57 257.535 191.13 256.545 192.26 255.745C191.77 254.495 192.58 252.615 194.69 250.115C191.94 248.405 190.57 246.175 190.57 243.435C190.57 241.605 191.23 239.955 192.56 238.495C193.89 237.035 195.62 236.005 197.75 235.425C198.63 234.055 199.79 232.955 201.21 232.125C202.63 231.305 204.12 230.885 205.67 230.885C207.56 230.885 209.33 231.445 210.98 232.575L211.12 232.665C211.18 232.665 211.21 232.695 211.21 232.755L211.48 232.895L207.82 236.555C209.19 237.345 210.27 238.345 211.05 239.555C211.83 240.765 212.22 242.045 212.22 243.425C212.22 245.775 211.17 247.785 209.06 249.445C206.95 251.105 204.41 251.935 201.42 251.935C199.13 251.935 197.07 251.435 195.24 250.425L195.15 250.565C194.69 251.145 194.68 251.635 195.11 252.025C195.54 252.425 196.25 252.685 197.24 252.805C198.23 252.925 198.99 253.005 199.51 253.035C200.03 253.065 200.47 253.085 200.84 253.085C201.14 253.085 201.79 253.085 202.79 253.085C203.78 253.085 204.51 253.095 204.99 253.105C205.47 253.115 206.07 253.185 206.82 253.315C207.54 253.435 208.21 253.615 208.79 253.865ZM206.78 262.785C207.18 262.175 207.3 261.515 207.15 260.815C207 259.925 206.45 259.285 205.5 258.895C204.55 258.505 203.55 258.305 202.48 258.305C202.21 258.305 202.01 258.285 201.89 258.255H200.65C200.5 258.225 200.28 258.205 200.01 258.205H198.96C198.93 258.205 198.73 258.195 198.37 258.185C198 258.165 197.78 258.165 197.71 258.165C197.63 258.165 197.43 258.155 197.11 258.145C196.79 258.125 196.58 258.115 196.47 258.095C196.36 258.075 196.17 258.055 195.9 258.025C195.63 257.995 195.41 257.945 195.26 257.885C195.11 257.825 194.92 257.765 194.71 257.705C194.5 257.645 194.3 257.565 194.14 257.475C193.97 257.385 193.81 257.275 193.66 257.155C193.48 257.065 193.32 256.955 193.2 256.835C192.77 257.015 192.47 257.365 192.28 257.885C192.1 258.405 192.07 258.905 192.19 259.395C192.68 261.405 193.9 262.915 195.85 263.925C197.8 264.935 199.85 265.285 201.98 264.975C204.47 264.645 206.07 263.915 206.78 262.785ZM201.42 235.505C199.59 235.475 198.35 236.135 197.71 237.495C197.07 238.855 196.75 240.795 196.75 243.325C196.75 245.215 196.86 246.655 197.07 247.625L205.54 238.375C204.9 236.495 203.53 235.535 201.42 235.505ZM201.42 251.295C202.4 251.295 203.21 251.095 203.85 250.705C204.49 250.315 204.96 249.715 205.27 248.915C205.57 248.125 205.79 247.285 205.91 246.425C206.03 245.555 206.09 244.515 206.09 243.295C206.09 241.375 205.95 239.865 205.68 238.765L197.21 248.235C197.85 250.275 199.25 251.295 201.42 251.295ZM203.34 232.445C202.49 232.445 201.69 232.685 200.96 233.155C200.23 233.625 199.68 234.265 199.31 235.055C200.01 234.965 200.71 234.915 201.42 234.915C203.62 234.915 205.62 235.385 207.42 236.335L207.92 235.785C206.76 233.555 205.23 232.445 203.34 232.445Z" fill="#989899"/>
<path d="M176.57 198.965L175.39 196.085C175.39 196.085 185.23 190.185 184.83 186.245C184.44 182.305 192.5 180.345 192.5 180.345C192.5 180.345 197.62 178.375 196.24 167.165C196.24 167.165 192.78 162.045 196.48 158.505C196.48 158.505 199.08 155.155 196.48 148.865C193.88 142.565 200.97 137.645 200.97 137.645C200.97 137.645 201.17 133.315 198.41 131.935C195.66 130.555 200.97 120.915 200.97 120.915C200.97 120.915 203.39 119.775 198.34 114.045C198.34 114.045 206.39 120.785 202.69 128.135C202.69 128.135 201.64 134.425 203.66 135.735C205.68 137.045 201.38 145.795 201.38 145.795C201.38 145.795 199.3 149.275 201.7 153.685C204.1 158.095 200.54 161.015 200.54 161.015C200.54 161.015 198.3 167.205 200.32 173.275C202.33 179.345 194.68 183.495 194.68 183.495C194.68 183.495 188.11 185.325 189.71 189.415C191.31 193.515 181.47 195.475 181.47 195.475C181.47 195.475 177.75 197.125 176.57 198.965Z" fill="#989899"/>
<path d="M124.13 115.215L125.31 117.285C125.31 117.275 188.47 118.755 124.13 115.215Z" fill="#989899"/>
<path d="M126.95 119.895L127.53 121.715C127.54 121.715 163.45 124.825 126.95 119.895Z" fill="#989899"/>
<path d="M112.24 101.145L114.27 102.385C114.28 102.385 170.29 73.1651 112.24 101.145Z" fill="#989899"/>
<path d="M115.19 103.115L116.61 104.825C116.61 104.825 158.59 92.6651 115.19 103.115Z" fill="#989899"/>
</svg>
