<svg width="222" height="222" viewBox="0 0 222 222" fill="none" xmlns="http://www.w3.org/2000/svg">
<path d="M107.198 85.865C108.448 82.815 110.088 79.1451 113.828 72.025C116.098 67.705 118.058 63.975 121.038 59.045C122.908 55.945 124.588 53.355 125.888 51.395C130.068 45.125 134.038 40.295 136.998 36.935C149.998 22.195 162.418 14.675 165.178 13.025C171.328 9.34505 177.398 6.90505 177.398 6.90505C183.038 4.63505 187.348 3.61504 192.728 2.33504C200.438 0.505043 204.368 -0.394955 207.908 0.165045C210.618 0.595045 217.988 1.77505 220.358 7.49505C222.288 12.155 220.268 18.305 215.388 22.695C215.388 22.695 226.508 -2.84496 193.838 10.535C161.168 23.915 109.428 91.995 109.428 91.995L153.698 55.395C171.908 42.855 194.348 45.485 194.358 45.815C194.358 45.885 193.438 45.795 191.718 45.805C188.138 45.825 184.288 46.195 178.618 47.385C175.688 48.005 169.688 49.265 163.138 52.105C157.288 54.645 152.958 57.595 145.298 63.645C138.788 68.785 130.478 75.695 121.078 84.425C109.148 94.795 105.558 96.105 104.568 95.255C103.688 94.515 104.848 91.625 107.198 85.865Z" fill="#989899"/>
<path d="M99.8775 92.1851C100.398 92.0751 100.848 91.6451 101.368 91.1551C101.448 91.0751 101.508 91.0151 101.558 90.9651C102.818 85.5751 104.328 81.4451 105.468 78.6651C105.938 77.5351 109.838 68.0451 109.078 62.7351C108.428 58.1451 105.738 68.4651 105.738 68.4651L99.2475 91.1351C98.5375 91.3451 98.3975 91.5251 98.3975 91.6451C98.3975 91.9351 99.1975 92.3351 99.8775 92.1851Z" fill="#989899"/>
<path d="M189.728 110.855L175.078 107.165C175.078 107.165 203.498 106.945 205.848 79.885C205.848 79.885 197.968 104.185 171.998 105.955C171.988 105.965 169.098 109.655 189.728 110.855Z" fill="#989899"/>
<path d="M119.958 169.365C119.958 169.365 139.048 193.985 160.638 198.965C160.638 198.965 162.158 198.445 158.418 195.685C154.678 192.935 144.448 194.385 122.608 169.355C122.598 169.365 117.488 166.405 119.958 169.365Z" fill="#989899"/>
<path d="M96.4975 89.5351L83.5075 65.735C83.5075 65.735 78.4675 58.4951 82.3075 67.9151L94.4975 90.3651H96.6175L96.4975 89.5351Z" fill="#989899"/>
<path d="M9.5475 27.365C13.1475 28.275 16.7375 29.165 20.3275 30.095C21.1175 30.305 21.9075 30.595 22.6475 30.925C25.6675 32.285 28.6375 33.715 31.9675 34.245C32.8975 34.395 33.8175 34.965 34.6175 35.525C40.2475 39.485 45.8475 43.475 51.4375 47.485C54.3675 49.585 57.1075 51.895 59.6375 54.505C63.2975 58.285 67.1475 61.915 71.1575 65.315C75.4475 68.955 78.9875 73.155 82.1375 77.775C86.8975 84.775 93.0375 90.335 100.268 94.715C100.548 94.885 100.848 95.045 101.158 95.165C104.608 96.455 107.327 98.605 109.817 101.375C114.997 107.145 119.748 113.165 123.488 119.965C127.077 126.485 129.577 133.365 130.257 140.825C130.347 141.855 130.378 142.905 130.327 143.935C130.277 145.075 130.878 145.645 131.857 145.865C132.617 146.035 133.417 146.125 134.197 146.145C136.188 146.185 138.188 146.205 140.178 146.135C145.878 145.945 151.518 146.535 157.128 147.475C160.518 148.045 163.947 148.325 167.327 148.925C168.807 149.185 170.238 149.865 171.637 150.465C173.307 151.175 173.728 152.695 173.898 154.335C174.058 155.855 174.368 157.375 174.378 158.905C174.388 160.385 174.088 161.855 173.958 163.335C173.717 165.975 173.527 168.625 173.257 171.255C172.797 175.705 172.288 180.145 171.808 184.595C171.218 190.125 170.667 195.665 171.947 201.175C172.677 204.325 174.278 206.675 177.528 207.735C179.088 208.245 180.527 209.155 182.077 209.705C183.548 210.225 185.088 210.515 186.598 210.915C186.948 211.005 187.318 211.105 187.648 211.255C188.568 211.685 189.488 212.135 190.387 212.605C190.587 212.705 190.738 212.915 191.178 213.325C190.398 213.545 189.858 213.825 189.308 213.835C180.558 214.005 171.798 214.165 163.048 214.275C160.348 214.305 159.338 213.125 160.188 210.605C162.188 204.605 161.748 198.425 161.348 192.355C161.078 188.335 160.628 184.255 159.438 180.275C157.978 175.385 158.608 170.425 160.308 165.625C160.498 165.095 160.628 164.545 160.838 163.845C160.158 163.775 159.648 163.665 159.128 163.675C154.998 163.755 150.948 164.265 147.088 165.825C143.768 167.175 140.297 167.675 136.757 167.725C131.697 167.795 126.618 167.895 121.577 167.605C118.457 167.425 115.387 166.525 112.298 165.975C111.357 165.805 110.398 165.775 109.468 165.585C108.068 165.315 107.197 166.205 106.137 166.835C104.077 168.055 101.918 169.125 99.7375 170.125C97.8675 170.985 95.9475 171.805 93.9675 172.385C90.1675 173.495 86.9175 175.645 83.5775 177.625C79.2275 180.195 74.9675 183.065 70.0475 184.335C65.1275 185.595 60.3475 187.295 55.3575 188.355C50.5075 189.385 45.7175 191.035 41.6875 194.245C37.8975 197.265 33.5875 199.365 29.1375 201.225C25.0675 202.925 21.1275 204.905 18.0175 208.125C16.9675 209.215 16.1975 210.655 15.5475 212.045C15.0275 213.155 15.5875 214.205 16.6575 214.765C17.8775 215.405 18.5775 216.405 19.1775 217.575C19.5575 218.305 20.1175 218.935 20.5475 219.645C21.0075 220.405 20.6875 221.115 19.8875 221.025C16.8475 220.695 13.7375 220.595 10.8075 219.845C7.99751 219.125 5.25752 217.885 2.71752 216.465C1.56752 215.825 0.787519 214.285 0.157519 212.995C-0.342481 211.975 0.417507 210.995 1.45751 210.365C2.82751 209.545 4.24751 208.725 5.39751 207.635C7.41751 205.715 9.4675 203.895 11.8275 202.375C13.1275 201.545 14.3375 200.395 15.2375 199.145C18.1175 195.165 21.1675 191.255 22.7275 186.485C22.8975 185.955 23.1975 185.335 23.6275 185.045C26.2675 183.265 27.9575 180.635 29.9175 178.225C30.9275 176.975 32.0975 175.825 33.3375 174.805C37.7075 171.215 40.9875 166.645 44.6475 162.415C46.7975 159.925 49.0975 157.635 51.7075 155.615C53.0475 154.585 54.1675 153.155 55.0675 151.705C56.7275 149.035 58.1175 146.205 59.6675 143.475C60.9075 141.295 61.7675 138.915 61.3375 136.475C61.0575 134.865 60.8375 133.355 60.9575 131.725C61.0375 130.585 60.0975 129.865 58.9175 129.765C57.4875 129.645 56.7375 128.945 56.5875 127.525C56.3575 125.375 55.8075 123.415 53.7875 122.135C52.8375 121.535 52.6475 120.385 52.9375 119.325C53.1875 118.375 52.7475 118.085 51.9875 118.035C50.9975 117.965 50.0075 117.955 49.0075 117.965C47.1675 117.985 45.3875 117.555 44.4775 115.895C42.6875 112.645 41.0175 109.315 39.5675 105.905C39.0375 104.645 39.0575 103.015 39.2575 101.615C39.5375 99.665 39.2775 97.505 40.8175 95.875C40.9475 95.735 41.0275 95.505 41.0575 95.305C41.3975 92.705 43.4375 91.245 44.9975 89.475C45.1275 89.325 45.3475 89.145 45.4975 89.155C47.8275 89.405 49.4775 87.735 51.4675 87.035C52.4675 86.675 53.3575 86.485 54.3275 86.905C55.4275 87.385 56.2875 87.065 57.1475 86.295C58.0675 85.465 59.0775 84.735 60.0975 84.025C60.9575 83.425 61.8475 83.465 62.5075 84.355C63.0175 85.045 63.6375 85.255 64.4475 85.155C65.7975 84.975 67.0775 85.105 68.2675 85.895C68.5075 86.055 68.9375 85.945 69.2775 85.955C69.2775 85.645 69.3775 85.305 69.2775 85.035C68.4175 82.795 67.7475 80.445 66.5675 78.385C65.4675 76.475 63.9175 74.785 62.3775 73.195C60.0175 70.755 58.0175 68.095 56.6375 64.985C55.6675 62.795 54.1375 61.155 52.0275 59.945C50.7575 59.215 49.5975 58.205 48.5975 57.125C43.5975 51.735 38.5975 46.365 32.7875 41.805C31.8475 41.065 30.8175 40.425 29.7575 39.875C29.1575 39.565 28.3675 39.295 27.7575 39.425C26.1675 39.765 24.8475 39.265 23.7075 38.335C20.0575 35.355 16.1675 32.805 11.8775 30.835C10.3875 30.145 9.00751 29.155 8.55751 27.375C8.88751 27.365 9.2175 27.365 9.5475 27.365ZM39.6075 179.005C39.6875 179.115 39.7675 179.215 39.8475 179.325C40.0875 179.275 40.3275 179.245 40.5575 179.185C44.5775 178.225 48.5875 177.225 52.6175 176.325C56.1475 175.535 59.5875 174.595 62.5475 172.355C70.3075 166.505 77.8375 160.405 84.5675 153.355C85.2775 152.615 86.1975 152.075 86.9175 151.345C87.3775 150.875 88.0075 150.185 87.9475 149.665C87.7175 147.865 88.8575 146.665 89.5575 145.275C89.6875 145.025 89.9475 144.805 89.9875 144.555C90.2675 142.565 91.7275 141.345 93.0875 140.215C93.9875 139.465 94.3375 138.625 94.5475 137.635C94.6475 137.155 94.3575 136.615 94.3975 136.105C94.4875 134.965 94.3775 134.955 93.1875 135.075C92.2975 135.165 91.3675 134.895 90.4675 134.755C90.1475 134.705 89.8175 134.415 89.5475 134.475C87.4875 134.975 85.4375 133.995 83.2975 134.645C81.4375 135.205 79.3575 135.085 77.3675 135.195C76.5275 135.245 75.9975 135.565 75.6275 136.335C74.2675 139.175 72.9075 142.005 71.4775 144.795C70.8175 146.075 70.0175 147.295 69.2175 148.495C67.7975 150.625 66.2375 152.675 64.8875 154.855C61.4475 160.365 57.7275 165.675 52.5875 169.735C49.6675 172.035 46.4275 173.925 43.3675 176.055C42.0675 176.955 40.8575 178.015 39.6075 179.005ZM72.5475 90.545C71.6175 92.365 71.4475 94.095 72.7875 95.505C73.2675 96.005 74.3575 95.925 75.1675 96.115C74.6975 93.895 74.5775 91.785 72.5475 90.545ZM68.1575 109.085C67.4475 109.775 67.1075 110.405 67.4875 111.315C67.8175 112.125 68.1275 112.955 68.2975 113.805C68.4475 114.585 68.8875 114.735 69.3975 114.365C69.7775 114.095 70.2075 113.515 70.1775 113.105C70.0675 111.565 69.3875 110.245 68.1575 109.085Z" fill="#F0B4D2"/>
<path d="M174.158 198.965L172.978 196.085C172.978 196.085 182.818 190.185 182.418 186.245C182.028 182.305 190.088 180.345 190.088 180.345C190.088 180.345 195.208 178.375 193.828 167.165C193.828 167.165 190.368 162.045 194.068 158.505C194.068 158.505 196.668 155.155 194.068 148.865C191.468 142.565 198.558 137.645 198.558 137.645C198.558 137.645 198.758 133.315 195.998 131.935C193.248 130.555 198.558 120.915 198.558 120.915C198.558 120.915 200.978 119.775 195.928 114.045C195.928 114.045 203.978 120.785 200.278 128.135C200.278 128.135 199.228 134.425 201.248 135.735C203.268 137.045 198.968 145.795 198.968 145.795C198.968 145.795 196.888 149.275 199.288 153.685C201.688 158.095 198.128 161.015 198.128 161.015C198.128 161.015 195.888 167.205 197.908 173.275C199.918 179.345 192.268 183.495 192.268 183.495C192.268 183.495 185.698 185.325 187.298 189.415C188.898 193.515 179.058 195.475 179.058 195.475C179.058 195.475 175.338 197.125 174.158 198.965Z" fill="#989899"/>
<path d="M121.718 115.215L122.898 117.285C122.898 117.275 186.058 118.755 121.718 115.215Z" fill="#989899"/>
<path d="M124.538 119.895L125.118 121.715C125.128 121.715 161.038 124.825 124.538 119.895Z" fill="#989899"/>
<path d="M109.828 101.145L111.858 102.385C111.868 102.385 167.878 73.1651 109.828 101.145Z" fill="#989899"/>
<path d="M112.778 103.115L114.198 104.825C114.198 104.825 156.178 92.6651 112.778 103.115Z" fill="#989899"/>
</svg>
